#!OML:ASF H:\Dans Jumps\Project 1\Capture day 1\Session 1\subject.ASF
:FULLY-SPECIFIED
:DEGREES
89
root 0.553934 17.6426 -14.0765 6.25161 -0.368903 -1.08111
lowerback -5.06412 -0.463875 -0.170875
upperback 3.19243 -0.687286 1.39519
thorax 6.18339 -0.379103 1.47806
lowerneck -12.1645 0.440079 -2.10125
upperneck 36.6292 0.957346 0.768959
head 14.665 0.218846 0.841424
rclavicle -5.96354e-016 1.39149e-015
rhumerus -22.6348 -10.4903 -84.883
rradius 24.5177
rwrist 32.6118
rhand -19.5971 -26.5853
rfingers 7.12502
rthumb 6.72875 -56.4583
lclavicle -5.96354e-016 1.39149e-015
lhumerus -18.7285 -8.28379 91.3517
lradius 19.2113
lwrist 1.82025
lhand -25.3294 -4.24361
lfingers 7.12502
lthumb 1.19345 25.7328
rfemur -11.1884 -3.31599 19.1375
rtibia 18.2535
rfoot -12.3146 -3.24605
rtoes 11.9584
lfemur -8.3187 5.89932 -17.6019
ltibia 13.9068
lfoot -9.27755 5.83016
ltoes 0.81825
90
root 0.554541 17.6424 -14.0774 6.24749 -0.370278 -1.08273
lowerback -5.05734 -0.462683 -0.168062
upperback 3.19678 -0.685918 1.39514
thorax 6.18401 -0.378329 1.47661
lowerneck -12.1668 0.440887 -2.09823
upperneck 36.6164 0.959011 0.765428
head 14.6595 0.219646 0.839571
rclavicle -2.38542e-015 -4.57205e-015
rhumerus -22.632 -10.5039 -84.8839
rradius 24.5091
rwrist 32.6142
rhand -19.5991 -26.5825
rfingers 7.12502
rthumb 6.72684 -56.4556
lclavicle -2.38542e-015 -4.57205e-015
lhumerus -18.7506 -8.25481 91.3417
lradius 19.1749
lwrist 1.79039
lhand -25.3258 -4.22099
lfingers 7.12502
lthumb 1.1969 25.7554
rfemur -11.1902 -3.31306 19.1366
rtibia 18.2586
rfoot -12.3141 -3.24671
rtoes 11.9521
lfemur -8.32291 5.90425 -17.6025
ltibia 13.919
lfoot -9.28427 5.82836
ltoes 0.813245
91
root 0.555136 17.6421 -14.0782 6.24219 -0.370382 -1.0866
lowerback -5.04864 -0.461769 -0.163648
upperback 3.20102 -0.685105 1.39636
thorax 6.18343 -0.377788 1.47553
lowerneck -12.1699 0.441454 -2.09745
upperneck 36.6019 0.960895 0.762126
head 14.6533 0.220281 0.838238
rclavicle 3.47873e-016 -3.18055e-015
rhumerus -22.6311 -10.5201 -84.8827
rradius 24.5002
rwrist 32.6212
rhand -19.5986 -26.58
rfingers 7.12502
rthumb 6.7273 -56.4531
lclavicle 3.47873e-016 -3.18055e-015
lhumerus -18.7775 -8.21922 91.3324
lradius 19.1445
lwrist 1.75384
lhand -25.3155 -4.19014
lfingers 7.12502
lthumb 1.20683 25.7862
rfemur -11.1894 -3.31146 19.1383
rtibia 18.2623
rfoot -12.3131 -3.24777
rtoes 11.9401
lfemur -8.32657 5.9071 -17.6001
ltibia 13.9337
lfoot -9.29339 5.82681
ltoes 0.817131
92
root 0.555726 17.6418 -14.0791 6.23623 -0.369776 -1.08957
lowerback -5.03941 -0.460669 -0.160316
upperback 3.20587 -0.683938 1.39719
thorax 6.18318 -0.377112 1.47469
lowerneck -12.1773 0.442338 -2.09257
upperneck 36.5882 0.963679 0.754913
head 14.6486 0.221329 0.83474
rclavicle 1.49089e-015 -2.26615e-014
rhumerus -22.6296 -10.5382 -84.8812
rradius 24.49
rwrist 32.6288
rhand -19.5965 -26.5789
rfingers 7.12502
rthumb 6.72938 -56.452
lclavicle 1.49089e-015 -2.26615e-014
lhumerus -18.8029 -8.17736 91.323
lradius 19.1115
lwrist 1.71015
lhand -25.3107 -4.17066
lfingers 7.12502
lthumb 1.21153 25.8056
rfemur -11.1879 -3.31257 19.1392
rtibia 18.2656
rfoot -12.3131 -3.24708
rtoes 11.9284
lfemur -8.33095 5.90943 -17.5984
ltibia 13.9506
lfoot -9.30365 5.82461
ltoes 0.824857
93
root 0.55627 17.6415 -14.0799 6.23055 -0.36931 -1.09328
lowerback -5.02797 -0.458828 -0.156108
upperback 3.20903 -0.681794 1.39768
thorax 6.17983 -0.375891 1.47312
lowerneck -12.1853 0.443304 -2.08528
upperneck 36.5754 0.966426 0.746384
head 14.6444 0.222513 0.830278
rclavicle 3.08116e-015 -2.98177e-015
rhumerus -22.6307 -10.5594 -84.879
rradius 24.4774
rwrist 32.6384
rhand -19.5877 -26.5851
rfingers 7.12502
rthumb 6.73786 -56.4579
lclavicle 3.08116e-015 -2.98177e-015
lhumerus -18.8341 -8.13126 91.3132
lradius 19.0833
lwrist 1.65986
lhand -25.3044 -4.15517
lfingers 7.12502
lthumb 1.21762 25.8211
rfemur -11.1867 -3.3116 19.1411
rtibia 18.2693
rfoot -12.3136 -3.24814
rtoes 11.9134
lfemur -8.33713 5.91259 -17.5956
ltibia 13.9693
lfoot -9.31406 5.82136
ltoes 0.832038
94
root 0.556743 17.6413 -14.0809 6.2267 -0.368278 -1.09629
lowerback -5.01733 -0.456607 -0.153694
upperback 3.21136 -0.679007 1.39837
thorax 6.17607 -0.374427 1.47283
lowerneck -12.1933 0.443955 -2.07789
upperneck 36.5617 0.969029 0.736961
head 14.6398 0.223547 0.825403
rclavicle -5.71506e-015 -1.39149e-015
rhumerus -22.6329 -10.5794 -84.8765
rradius 24.4659
rwrist 32.6453
rhand -19.5744 -26.6009
rfingers 7.12502
rthumb 6.75067 -56.4733
lclavicle -5.71506e-015 -1.39149e-015
lhumerus -18.8638 -8.07972 91.3039
lradius 19.0518
lwrist 1.60291
lhand -25.2961 -4.1489
lfingers 7.12502
lthumb 1.22562 25.8273
rfemur -11.1884 -3.30727 19.1425
rtibia 18.2747
rfoot -12.315 -3.25344
rtoes 11.8981
lfemur -8.34675 5.91683 -17.5932
ltibia 13.9892
lfoot -9.32402 5.81541
ltoes 0.845842
95
root 0.557168 17.641 -14.082 6.22363 -0.364213 -1.09726
lowerback -5.00738 -0.454989 -0.152895
upperback 3.21416 -0.676858 1.39811
thorax 6.17324 -0.373329 1.47238
lowerneck -12.2033 0.445056 -2.06899
upperneck 36.5478 0.972244 0.726747
head 14.6357 0.224948 0.820044
rclavicle -3.8266e-015 -2.78299e-015
rhumerus -22.6351 -10.601 -84.8743
rradius 24.4547
rwrist 32.6524
rhand -19.5616 -26.6149
rfingers 7.12502
rthumb 6.76299 -56.4869
lclavicle -3.8266e-015 -2.78299e-015
lhumerus -18.8927 -8.02659 91.2941
lradius 19.0219
lwrist 1.54509
lhand -25.2838 -4.14935
lfingers 7.12502
lthumb 1.23748 25.8268
rfemur -11.191 -3.30404 19.1422
rtibia 18.2818
rfoot -12.3179 -3.26051
rtoes 11.8829
lfemur -8.35925 5.9211 -17.593
ltibia 14.0105
lfoot -9.33218 5.80688
ltoes 0.847806
96
root 0.557556 17.6407 -14.083 6.22252 -0.359835 -1.0974
lowerback -4.99891 -0.452469 -0.15125
upperback 3.21652 -0.673463 1.39601
thorax 6.17071 -0.371536 1.46965
lowerneck -12.2154 0.445613 -2.0574
upperneck 36.5352 0.973942 0.716603
head 14.6326 0.226071 0.814028
rclavicle 5.56597e-015 -7.7526e-015
rhumerus -22.639 -10.627 -84.8732
rradius 24.4449
rwrist 32.6612
rhand -19.5502 -26.6328
rfingers 7.12502
rthumb 6.77403 -56.5045
lclavicle 5.56597e-015 -7.7526e-015
lhumerus -18.9202 -7.97854 91.2834
lradius 18.9918
lwrist 1.4913
lhand -25.2782 -4.15422
lfingers 7.12502
lthumb 1.24285 25.8219
rfemur -11.1968 -3.30312 19.1412
rtibia 18.291
rfoot -12.321 -3.26584
rtoes 11.8634
lfemur -8.37471 5.9266 -17.5939
ltibia 14.032
lfoot -9.3386 5.79683
ltoes 0.843581
97
root 0.557905 17.6404 -14.0842 6.2224 -0.353902 -1.09779
lowerback -4.99096 -0.450389 -0.14913
upperback 3.21836 -0.670703 1.3941
thorax 6.16795 -0.370038 1.4668
lowerneck -12.2243 0.445847 -2.0509
upperneck 36.5215 0.974823 0.711063
head 14.6283 0.22678 0.810662
rclavicle -5.26779e-015 1.43125e-014
rhumerus -22.6456 -10.6485 -84.872
rradius 24.4393
rwrist 32.6668
rhand -19.5385 -26.6505
rfingers 7.12502
rthumb 6.7853 -56.5218
lclavicle -5.26779e-015 1.43125e-014
lhumerus -18.9457 -7.92671 91.2731
lradius 18.959
lwrist 1.43811
lhand -25.266 -4.14679
lfingers 7.12502
lthumb 1.25463 25.8293
rfemur -11.2045 -3.30242 19.1409
rtibia 18.3018
rfoot -12.3242 -3.27228
rtoes 11.8456
lfemur -8.39189 5.93007 -17.5947
ltibia 14.0535
lfoot -9.343 5.78896
ltoes 0.830563
98
root 0.558263 17.6401 -14.0853 6.22214 -0.348259 -1.09753
lowerback -4.98361 -0.448855 -0.147619
upperback 3.21976 -0.668619 1.39208
thorax 6.1651 -0.368894 1.46409
lowerneck -12.2308 0.447235 -2.04556
upperneck 36.5081 0.977176 0.706889
head 14.6235 0.228139 0.808282
rclavicle 5.46658e-016 9.14409e-015
rhumerus -22.6539 -10.6675 -84.8711
rradius 24.4341
rwrist 32.6699
rhand -19.5282 -26.6687
rfingers 7.12502
rthumb 6.79532 -56.5397
lclavicle 5.46658e-016 9.14409e-015
lhumerus -18.9701 -7.87458 91.2629
lradius 18.9231
lwrist 1.38841
lhand -25.2511 -4.12871
lfingers 7.12502
lthumb 1.26904 25.8473
rfemur -11.2126 -3.3045 19.1399
rtibia 18.3137
rfoot -12.3271 -3.2754
rtoes 11.8338
lfemur -8.40846 5.9322 -17.5965
ltibia 14.0746
lfoot -9.34657 5.78361
ltoes 0.817102
99
root 0.558583 17.6398 -14.0864 6.22143 -0.341776 -1.09767
lowerback -4.97557 -0.4488 -0.147501
upperback 3.21959 -0.668471 1.39162
thorax 6.16028 -0.368788 1.4636
lowerneck -12.2317 0.44982 -2.04273
upperneck 36.4943 0.981717 0.703064
head 14.6171 0.230141 0.806787
rclavicle -3.27995e-015 3.57812e-015
rhumerus -22.6671 -10.679 -84.8689
rradius 24.4308
rwrist 32.6694
rhand -19.5196 -26.683
rfingers 7.12502
rthumb 6.80361 -56.5536
lclavicle -3.27995e-015 3.57812e-015
lhumerus -18.9971 -7.81684 91.2539
lradius 18.8864
lwrist 1.33812
lhand -25.2272 -4.09125
lfingers 7.12502
lthumb 1.29213 25.8846
rfemur -11.2202 -3.3072 19.1395
rtibia 18.326
rfoot -12.3304 -3.27833
rtoes 11.8268
lfemur -8.42388 5.93167 -17.5978
ltibia 14.095
lfoot -9.34984 5.78079
ltoes 0.801043
100
root 0.558871 17.6396 -14.0874 6.21988 -0.3349 -1.0981
lowerback -4.96724 -0.449418 -0.148162
upperback 3.21985 -0.669202 1.39177
thorax 6.1558 -0.369167 1.46409
lowerneck -12.2342 0.453477 -2.04025
upperneck 36.4822 0.987631 0.700258
head 14.6119 0.232794 0.806018
rclavicle 3.52843e-015 7.95139e-015
rhumerus -22.6792 -10.692 -84.8663
rradius 24.4267
rwrist 32.6721
rhand -19.5095 -26.6924
rfingers 7.12502
rthumb 6.81335 -56.5628
lclavicle 3.52843e-015 7.95139e-015
lhumerus -19.0194 -7.75864 91.245
lradius 18.8433
lwrist 1.29091
lhand -25.2075 -4.06363
lfingers 7.12502
lthumb 1.31113 25.9121
rfemur -11.227 -3.31064 19.1396
rtibia 18.3379
rfoot -12.3338 -3.28053
rtoes 11.8272
lfemur -8.43782 5.92846 -17.5988
ltibia 14.1149
lfoot -9.35266 5.7818
ltoes 0.785372
101
root 0.559125 17.6394 -14.0884 6.21755 -0.327631 -1.0992
lowerback -4.95671 -0.450864 -0.149695
upperback 3.21892 -0.671022 1.39323
thorax 6.14886 -0.370138 1.46634
lowerneck -12.2354 0.458364 -2.03778
upperneck 36.4711 0.995819 0.696149
head 14.6068 0.23623 0.805066
rclavicle -4.96962e-016 8.54774e-015
rhumerus -22.6929 -10.7009 -84.863
rradius 24.4222
rwrist 32.6733
rhand -19.4992 -26.6955
rfingers 7.12502
rthumb 6.82327 -56.5656
lclavicle -4.96962e-016 8.54774e-015
lhumerus -19.043 -7.69371 91.2362
lradius 18.7986
lwrist 1.23731
lhand -25.1936 -4.04591
lfingers 7.12502
lthumb 1.32463 25.9297
rfemur -11.2325 -3.31195 19.1405
rtibia 18.3487
rfoot -12.3364 -3.28553
rtoes 11.8264
lfemur -8.45065 5.9221 -17.5989
ltibia 14.1347
lfoot -9.35565 5.78641
ltoes 0.76967
102
root 0.559364 17.6391 -14.0894 6.21326 -0.319905 -1.10183
lowerback -4.94516 -0.452569 -0.150741
upperback 3.21795 -0.67328 1.39579
thorax 6.1413 -0.371328 1.46941
lowerneck -12.2344 0.463425 -2.0343
upperneck 36.4604 1.00456 0.690291
head 14.6014 0.239806 0.803291
rclavicle -6.95746e-016 4.96962e-015
rhumerus -22.7072 -10.7119 -84.8581
rradius 24.4163
rwrist 32.6782
rhand -19.4892 -26.6895
rfingers 7.12502
rthumb 6.83292 -56.5593
lclavicle -6.95746e-016 4.96962e-015
lhumerus -19.0666 -7.62891 91.2279
lradius 18.7532
lwrist 1.18286
lhand -25.1817 -4.04059
lfingers 7.12502
lthumb 1.33606 25.935
rfemur -11.2353 -3.30894 19.1429
rtibia 18.3582
rfoot -12.3384 -3.2946
rtoes 11.8304
lfemur -8.46107 5.915 -17.5968
ltibia 14.1551
lfoot -9.35976 5.79131
ltoes 0.755621
